<svg xmlns="http://www.w3.org/2000/svg" viewBox="0 0 800 450" width="800" height="450" role="img" aria-label="Supply Chain Intelligence Dashboard thumbnail — two-role architecture overview with SQL highlights">
  <defs>
    <linearGradient id="bg" x1="0%" y1="0%" x2="100%" y2="100%">
      <stop offset="0%" style="stop-color:#07100a"/>
      <stop offset="100%" style="stop-color:#0b1610"/>
    </linearGradient>
    <filter id="glow">
      <feGaussianBlur stdDeviation="3" result="b"/>
      <feMerge><feMergeNode in="b"/><feMergeNode in="SourceGraphic"/></feMerge>
    </filter>
    <filter id="softglow">
      <feGaussianBlur stdDeviation="14" result="b"/>
      <feMerge><feMergeNode in="b"/><feMergeNode in="SourceGraphic"/></feMerge>
    </filter>
  </defs>

  <!-- Background -->
  <rect width="800" height="450" fill="url(#bg)"/>

  <!-- Scanlines -->
  <rect width="800" height="450" fill="url(#scanlines)" opacity="0.3"/>

  <!-- Grid -->
  <g stroke="#2ecc71" stroke-opacity="0.04" stroke-width="1">
    <line x1="0" y1="40" x2="800" y2="40"/> <line x1="0" y1="80" x2="800" y2="80"/>
    <line x1="0" y1="120" x2="800" y2="120"/> <line x1="0" y1="160" x2="800" y2="160"/>
    <line x1="0" y1="200" x2="800" y2="200"/> <line x1="0" y1="240" x2="800" y2="240"/>
    <line x1="0" y1="280" x2="800" y2="280"/> <line x1="0" y1="320" x2="800" y2="320"/>
    <line x1="0" y1="360" x2="800" y2="360"/> <line x1="0" y1="400" x2="800" y2="400"/>
    <line x1="40" y1="0" x2="40" y2="450"/> <line x1="80" y1="0" x2="80" y2="450"/>
    <line x1="120" y1="0" x2="120" y2="450"/> <line x1="160" y1="0" x2="160" y2="450"/>
    <line x1="200" y1="0" x2="200" y2="450"/> <line x1="240" y1="0" x2="240" y2="450"/>
    <line x1="280" y1="0" x2="280" y2="450"/> <line x1="320" y1="0" x2="320" y2="450"/>
    <line x1="360" y1="0" x2="360" y2="450"/> <line x1="400" y1="0" x2="400" y2="450"/>
    <line x1="440" y1="0" x2="440" y2="450"/> <line x1="480" y1="0" x2="480" y2="450"/>
    <line x1="520" y1="0" x2="520" y2="450"/> <line x1="560" y1="0" x2="560" y2="450"/>
    <line x1="600" y1="0" x2="600" y2="450"/> <line x1="640" y1="0" x2="640" y2="450"/>
    <line x1="680" y1="0" x2="680" y2="450"/> <line x1="720" y1="0" x2="720" y2="450"/>
    <line x1="760" y1="0" x2="760" y2="450"/>
  </g>

  <!-- Ambient glows -->
  <ellipse cx="680" cy="100" rx="220" ry="150" fill="#2ecc71" fill-opacity="0.04" filter="url(#softglow)"/>
  <ellipse cx="100" cy="380" rx="160" ry="100" fill="#00b894" fill-opacity="0.04" filter="url(#softglow)"/>

  <!-- ── TITLE ── -->
  <text x="30" y="48" font-family="system-ui,sans-serif" font-weight="800" font-size="24" fill="#ddeedd" letter-spacing="-0.5">Supply Chain Intelligence Dashboard</text>
  <text x="30" y="68" font-family="system-ui,sans-serif" font-size="11" fill="#6a9070">Full-Stack · PHP + PostgreSQL + Chart.js · Role-Based Analytics · Team of 6</text>

  <!-- ── TECH CHIPS ── -->
  <rect x="30" y="78" width="55" height="20" rx="4" fill="rgba(46,204,113,0.1)" stroke="rgba(46,204,113,0.4)" stroke-width="1"/>
  <text x="57" y="92" font-family="system-ui,sans-serif" font-size="9" fill="#2ecc71" text-anchor="middle">PostgreSQL</text>
  <rect x="92" y="78" width="36" height="20" rx="4" fill="rgba(162,155,254,0.1)" stroke="rgba(162,155,254,0.4)" stroke-width="1"/>
  <text x="110" y="92" font-family="system-ui,sans-serif" font-size="9" fill="#a29bfe" text-anchor="middle">PHP 8</text>
  <rect x="135" y="78" width="46" height="20" rx="4" fill="rgba(253,203,110,0.1)" stroke="rgba(253,203,110,0.4)" stroke-width="1"/>
  <text x="158" y="92" font-family="system-ui,sans-serif" font-size="9" fill="#fdcb6e" text-anchor="middle">Chart.js</text>
  <rect x="188" y="78" width="28" height="20" rx="4" fill="rgba(116,185,255,0.1)" stroke="rgba(116,185,255,0.4)" stroke-width="1"/>
  <text x="202" y="92" font-family="system-ui,sans-serif" font-size="9" fill="#74b9ff" text-anchor="middle">PDO</text>

  <!-- ── KPI CARDS ── -->
  <rect x="30" y="110" width="80" height="44" rx="6" fill="#101d14" stroke="#1a2f1f" stroke-width="1"/>
  <text x="70" y="128" font-family="system-ui,sans-serif" font-weight="800" font-size="16" fill="#2ecc71" text-anchor="middle" filter="url(#glow)">10</text>
  <text x="70" y="143" font-family="system-ui,sans-serif" font-size="8" fill="#3a5040" text-anchor="middle">PHP Pages</text>

  <rect x="118" y="110" width="80" height="44" rx="6" fill="#101d14" stroke="#1a2f1f" stroke-width="1"/>
  <text x="158" y="128" font-family="system-ui,sans-serif" font-weight="800" font-size="16" fill="#2ecc71" text-anchor="middle" filter="url(#glow)">2</text>
  <text x="158" y="143" font-family="system-ui,sans-serif" font-size="8" fill="#3a5040" text-anchor="middle">User Roles</text>

  <rect x="206" y="110" width="80" height="44" rx="6" fill="#101d14" stroke="#1a2f1f" stroke-width="1"/>
  <text x="246" y="128" font-family="system-ui,sans-serif" font-weight="800" font-size="16" fill="#2ecc71" text-anchor="middle" filter="url(#glow)">30+</text>
  <text x="246" y="143" font-family="system-ui,sans-serif" font-size="8" fill="#3a5040" text-anchor="middle">SQL Queries</text>

  <rect x="294" y="110" width="80" height="44" rx="6" fill="#101d14" stroke="#1a2f1f" stroke-width="1"/>
  <text x="334" y="128" font-family="system-ui,sans-serif" font-weight="800" font-size="16" fill="#2ecc71" text-anchor="middle" filter="url(#glow)">12+</text>
  <text x="334" y="143" font-family="system-ui,sans-serif" font-size="8" fill="#3a5040" text-anchor="middle">DB Tables</text>

  <!-- ── SCM ROLE PANEL ── -->
  <rect x="30" y="170" width="230" height="240" rx="8" fill="#101d14" stroke="rgba(46,204,113,0.3)" stroke-width="1"/>
  <rect x="30" y="170" width="230" height="28" rx="8" fill="rgba(46,204,113,0.08)"/>
  <rect x="30" y="186" width="230" height="12" fill="rgba(46,204,113,0.08)"/>
  <text x="44" y="189" font-family="system-ui,sans-serif" font-weight="700" font-size="10" fill="#2ecc71">Supply Chain Manager</text>

  <!-- Page list SCM -->
  <text x="44" y="215" font-family="system-ui,sans-serif" font-size="9" fill="#6a9070">▸ Overview KPIs</text>
  <text x="44" y="230" font-family="system-ui,sans-serif" font-size="9" fill="#6a9070">▸ Company Explorer + Detail</text>
  <text x="44" y="245" font-family="system-ui,sans-serif" font-size="9" fill="#6a9070">▸ Disruptions (8 analytics)</text>
  <text x="44" y="260" font-family="system-ui,sans-serif" font-size="9" fill="#6a9070">▸ Transaction Ledger (UNION ALL)</text>
  <text x="44" y="275" font-family="system-ui,sans-serif" font-size="9" fill="#6a9070">▸ Distributor Route Analytics</text>

  <!-- On-time rate mini chart -->
  <rect x="44" y="290" width="200" height="105" rx="4" fill="#0b1610" stroke="#1a2f1f" stroke-width="1"/>
  <text x="54" y="305" font-family="system-ui,sans-serif" font-size="8" fill="#3a5040">On-Time Delivery Rate by Company</text>
  <!-- Mini bar chart -->
  <rect x="54" y="360" width="20" height="40" rx="2" fill="#2ecc71" fill-opacity="0.6"/>
  <rect x="80" y="348" width="20" height="52" rx="2" fill="#2ecc71" fill-opacity="0.7"/>
  <rect x="106" y="335" width="20" height="65" rx="2" fill="#2ecc71" fill-opacity="0.8"/>
  <rect x="132" y="355" width="20" height="45" rx="2" fill="#2ecc71" fill-opacity="0.6"/>
  <rect x="158" y="342" width="20" height="58" rx="2" fill="#2ecc71" fill-opacity="0.75"/>
  <rect x="184" y="340" width="20" height="60" rx="2" fill="#2ecc71" fill-opacity="0.9" filter="url(#glow)"/>
  <line x1="44" y1="400" x2="244" y2="400" stroke="#1a2f1f" stroke-width="1"/>

  <!-- ── SM ROLE PANEL ── -->
  <rect x="275" y="170" width="230" height="240" rx="8" fill="#101d14" stroke="rgba(168,224,99,0.3)" stroke-width="1"/>
  <rect x="275" y="170" width="230" height="28" rx="8" fill="rgba(168,224,99,0.06)"/>
  <rect x="275" y="186" width="230" height="12" fill="rgba(168,224,99,0.06)"/>
  <text x="289" y="189" font-family="system-ui,sans-serif" font-weight="700" font-size="10" fill="#a8e063">Senior Manager</text>

  <!-- Page list SM -->
  <text x="289" y="215" font-family="system-ui,sans-serif" font-size="9" fill="#6a9070">▸ Financial Health by Company/Region</text>
  <text x="289" y="230" font-family="system-ui,sans-serif" font-size="9" fill="#6a9070">▸ Criticality Score (downstream × risk)</text>
  <text x="289" y="245" font-family="system-ui,sans-serif" font-size="9" fill="#6a9070">▸ Regional Disruption Overview</text>
  <text x="289" y="260" font-family="system-ui,sans-serif" font-size="9" fill="#6a9070">▸ Recovery Time by Category</text>
  <text x="289" y="275" font-family="system-ui,sans-serif" font-size="9" fill="#6a9070">▸ Add Company (multi-table insert)</text>

  <!-- Heatmap schematic -->
  <rect x="289" y="290" width="200" height="105" rx="4" fill="#0b1610" stroke="#1a2f1f" stroke-width="1"/>
  <text x="299" y="305" font-family="system-ui,sans-serif" font-size="8" fill="#3a5040">Regional Risk Heatmap (region × month)</text>
  <!-- Mini heatmap cells -->
  <g font-family="system-ui,sans-serif" font-size="7" text-anchor="middle">
    <rect x="299" y="312" width="24" height="16" rx="2" fill="#e53935"/><text x="311" y="323" fill="white">12</text>
    <rect x="325" y="312" width="24" height="16" rx="2" fill="#ffb74d"/><text x="337" y="323" fill="#07100a">7</text>
    <rect x="351" y="312" width="24" height="16" rx="2" fill="#ffd54f"/><text x="363" y="323" fill="#07100a">4</text>
    <rect x="377" y="312" width="24" height="16" rx="2" fill="#a5d6a7"/><text x="389" y="323" fill="#07100a">2</text>
    <rect x="403" y="312" width="24" height="16" rx="2" fill="white"/><text x="415" y="323" fill="#333">0</text>
    <rect x="429" y="312" width="24" height="16" rx="2" fill="#e8f5e9"/><text x="441" y="323" fill="#333">1</text>

    <rect x="299" y="330" width="24" height="16" rx="2" fill="#ffb74d"/><text x="311" y="341" fill="#07100a">8</text>
    <rect x="325" y="330" width="24" height="16" rx="2" fill="#e8f5e9"/><text x="337" y="341" fill="#333">1</text>
    <rect x="351" y="330" width="24" height="16" rx="2" fill="#ffd54f"/><text x="363" y="341" fill="#07100a">5</text>
    <rect x="377" y="330" width="24" height="16" rx="2" fill="white"/><text x="389" y="341" fill="#333">0</text>
    <rect x="403" y="330" width="24" height="16" rx="2" fill="#e53935"/><text x="415" y="341" fill="white">15</text>
    <rect x="429" y="330" width="24" height="16" rx="2" fill="#a5d6a7"/><text x="441" y="341" fill="#07100a">3</text>

    <rect x="299" y="348" width="24" height="16" rx="2" fill="white"/><text x="311" y="359" fill="#333">0</text>
    <rect x="325" y="348" width="24" height="16" rx="2" fill="#a5d6a7"/><text x="337" y="359" fill="#07100a">2</text>
    <rect x="351" y="348" width="24" height="16" rx="2" fill="#ffd54f"/><text x="363" y="359" fill="#07100a">6</text>
    <rect x="377" y="348" width="24" height="16" rx="2" fill="#e8f5e9"/><text x="389" y="359" fill="#333">1</text>
    <rect x="403" y="348" width="24" height="16" rx="2" fill="#ffb74d"/><text x="415" y="359" fill="#07100a">9</text>
    <rect x="429" y="348" width="24" height="16" rx="2" fill="white"/><text x="441" y="359" fill="#333">0</text>

    <rect x="299" y="366" width="24" height="16" rx="2" fill="#a5d6a7"/><text x="311" y="377" fill="#07100a">3</text>
    <rect x="325" y="366" width="24" height="16" rx="2" fill="#ffd54f"/><text x="337" y="377" fill="#07100a">4</text>
    <rect x="351" y="366" width="24" height="16" rx="2" fill="#e8f5e9"/><text x="363" y="377" fill="#333">1</text>
    <rect x="377" y="366" width="24" height="16" rx="2" fill="white"/><text x="389" y="377" fill="#333">0</text>
    <rect x="403" y="366" width="24" height="16" rx="2" fill="#e53935"/><text x="415" y="377" fill="white">11</text>
    <rect x="429" y="366" width="24" height="16" rx="2" fill="#a5d6a7"/><text x="441" y="377" fill="#07100a">2</text>
  </g>

  <!-- Legend -->
  <rect x="299" y="390" width="8" height="8" rx="1" fill="#e53935"/>
  <text x="311" y="398" font-family="system-ui,sans-serif" font-size="7" fill="#6a9070">High (15+)</text>
  <rect x="350" y="390" width="8" height="8" rx="1" fill="#ffd54f"/>
  <text x="362" y="398" font-family="system-ui,sans-serif" font-size="7" fill="#6a9070">Med (5-10)</text>
  <rect x="404" y="390" width="8" height="8" rx="1" fill="white"/>
  <text x="416" y="398" font-family="system-ui,sans-serif" font-size="7" fill="#6a9070">None</text>

  <!-- ── SQL SNIPPET PANEL ── -->
  <rect x="520" y="110" width="250" height="300" rx="8" fill="#0b1610" stroke="#1a2f1f" stroke-width="1"/>
  <rect x="520" y="110" width="250" height="22" rx="8" fill="#101d14"/>
  <rect x="520" y="120" width="250" height="12" fill="#101d14"/>
  <text x="534" y="125" font-family="system-ui,sans-serif" font-size="8" fill="#3a5040">SQL Highlights</text>
  <circle cx="756" cy="121" r="3" fill="#e74c3c"/>
  <circle cx="745" cy="121" r="3" fill="#f9ca24"/>
  <circle cx="734" cy="121" r="3" fill="#2ecc71"/>

  <text x="534" y="155" font-family="monospace" font-size="8" fill="#74b9ff">SELECT</text>
  <text x="572" y="155" font-family="monospace" font-size="8" fill="#ddeedd"> l.ContinentName,</text>
  <text x="534" y="168" font-family="monospace" font-size="8" fill="#ddeedd">  COUNT(</text>
  <text x="570" y="168" font-family="monospace" font-size="8" fill="#74b9ff">DISTINCT</text>
  <text x="622" y="168" font-family="monospace" font-size="8" fill="#ddeedd"> de.EventID)</text>
  <text x="534" y="181" font-family="monospace" font-size="8" fill="#74b9ff">    + 2 * </text>
  <text x="574" y="181" font-family="monospace" font-size="8" fill="#74b9ff">COUNT</text>
  <text x="600" y="181" font-family="monospace" font-size="8" fill="#ddeedd">(</text>
  <text x="534" y="194" font-family="monospace" font-size="8" fill="#74b9ff">    CASE WHEN</text>
  <text x="600" y="194" font-family="monospace" font-size="8" fill="#ddeedd"> ImpactLevel</text>
  <text x="534" y="207" font-family="monospace" font-size="8" fill="#ddeedd">    = </text>
  <text x="554" y="207" font-family="monospace" font-size="8" fill="#a8e063">'High'</text>
  <text x="590" y="207" font-family="monospace" font-size="8" fill="#74b9ff"> THEN</text>
  <text x="620" y="207" font-family="monospace" font-size="8" fill="#ddeedd"> EventID</text>
  <text x="534" y="220" font-family="monospace" font-size="8" fill="#74b9ff">    ELSE NULL END</text>
  <text x="534" y="233" font-family="monospace" font-size="8" fill="#ddeedd">) </text>
  <text x="546" y="233" font-family="monospace" font-size="8" fill="#74b9ff">AS</text>
  <text x="562" y="233" font-family="monospace" font-size="8" fill="#ddeedd"> ExposureScore</text>

  <line x1="534" y1="245" x2="756" y2="245" stroke="#1a2f1f" stroke-width="1"/>

  <text x="534" y="260" font-family="monospace" font-size="8" fill="#74b9ff">SELECT</text>
  <text x="572" y="260" font-family="monospace" font-size="8" fill="#ddeedd"> CompanyID,</text>
  <text x="534" y="273" font-family="monospace" font-size="8" fill="#ddeedd">  DownstreamCount</text>
  <text x="534" y="286" font-family="monospace" font-size="8" fill="#74b9ff">  * </text>
  <text x="548" y="286" font-family="monospace" font-size="8" fill="#ddeedd">HighImpactCount</text>
  <text x="534" y="299" font-family="monospace" font-size="8" fill="#74b9ff">  AS</text>
  <text x="556" y="299" font-family="monospace" font-size="8" fill="#2ecc71" filter="url(#glow)"> Criticality</text>
  <text x="534" y="312" font-family="monospace" font-size="8" fill="#74b9ff">FROM</text>
  <text x="558" y="312" font-family="monospace" font-size="8" fill="#ddeedd"> Company c</text>
  <text x="534" y="325" font-family="monospace" font-size="8" fill="#74b9ff">LEFT JOIN</text>
  <text x="588" y="325" font-family="monospace" font-size="8" fill="#ddeedd"> (subquery_ds)</text>
  <text x="534" y="338" font-family="monospace" font-size="8" fill="#74b9ff">LEFT JOIN</text>
  <text x="588" y="338" font-family="monospace" font-size="8" fill="#ddeedd"> (subquery_hi)</text>
  <text x="534" y="351" font-family="monospace" font-size="8" fill="#74b9ff">ORDER BY</text>
  <text x="586" y="351" font-family="monospace" font-size="8" fill="#2ecc71"> Criticality DESC</text>
  <text x="534" y="364" font-family="monospace" font-size="8" fill="#74b9ff">LIMIT</text>
  <text x="562" y="364" font-family="monospace" font-size="8" fill="#a8e063"> 20</text>

  <!-- Footer -->
  <text x="760" y="442" font-family="system-ui,sans-serif" font-size="9" fill="#3a5040" text-anchor="end">Nakul Sreekanth · Purdue University · Team of 6</text>
</svg>
